/* XPM */
static char * blue_prev_xpm[] = {
"80 80 183 2",
"  	c None",
". 	c #000000",
"+ 	c #0000E2",
"@ 	c #0000FF",
"# 	c #0000FC",
"$ 	c #0000ED",
"% 	c #0000BA",
"& 	c #000076",
"* 	c #000032",
"= 	c #0000CB",
"- 	c #0000FD",
"; 	c #0000F2",
"> 	c #0000C0",
", 	c #000080",
"' 	c #0000FB",
") 	c #0000F6",
"! 	c #0000DF",
"~ 	c #0000A6",
"{ 	c #000063",
"] 	c #000027",
"^ 	c #0000CA",
"/ 	c #0000F7",
"( 	c #0000E5",
"_ 	c #0000AC",
": 	c #00006D",
"< 	c #0000F4",
"[ 	c #0000EE",
"} 	c #0000EA",
"| 	c #0000E6",
"1 	c #0000EC",
"2 	c #0000E7",
"3 	c #0000E9",
"4 	c #0000DE",
"5 	c #0000BC",
"6 	c #00007D",
"7 	c #000040",
"8 	c #000013",
"9 	c #0000C7",
"0 	c #0000F5",
"a 	c #0000EF",
"b 	c #0000E8",
"c 	c #0000EB",
"d 	c #0000E0",
"e 	c #0000C4",
"f 	c #000083",
"g 	c #000048",
"h 	c #0000DA",
"i 	c #0000D7",
"j 	c #0000DB",
"k 	c #0000D9",
"l 	c #0000CE",
"m 	c #0000A3",
"n 	c #000064",
"o 	c #00002A",
"p 	c #000006",
"q 	c #0000C5",
"r 	c #0000D8",
"s 	c #0000D0",
"t 	c #000069",
"u 	c #000031",
"v 	c #0000E1",
"w 	c #0000FA",
"x 	c #0000CD",
"y 	c #0000C6",
"z 	c #000092",
"A 	c #000058",
"B 	c #000023",
"C 	c #000004",
"D 	c #0000DD",
"E 	c #0000BE",
"F 	c #00009A",
"G 	c #00005C",
"H 	c #0000F9",
"I 	c #0000BF",
"J 	c #0000C1",
"K 	c #0000B5",
"L 	c #00008D",
"M 	c #000055",
"N 	c #000022",
"O 	c #000003",
"P 	c #0000C9",
"Q 	c #0000BD",
"R 	c #0000B7",
"S 	c #000095",
"T 	c #000059",
"U 	c #000028",
"V 	c #0000F8",
"W 	c #0000D4",
"X 	c #0000B9",
"Y 	c #000090",
"Z 	c #00005A",
"` 	c #000025",
" .	c #0000D5",
"..	c #0000BB",
"+.	c #000098",
"@.	c #00005E",
"#.	c #00002C",
"$.	c #0000B6",
"%.	c #00008E",
"&.	c #000056",
"*.	c #0000C8",
"=.	c #0000B8",
"-.	c #000096",
";.	c #000029",
">.	c #0000D6",
",.	c #0000C3",
"'.	c #0000B4",
").	c #000054",
"!.	c #000057",
"~.	c #00005B",
"{.	c #0000CF",
"].	c #0000B3",
"^.	c #0000AF",
"/.	c #000088",
"(.	c #0000B1",
"_.	c #0000F3",
":.	c #0000D3",
"<.	c #00008A",
"[.	c #00008B",
"}.	c #000089",
"|.	c #000086",
"1.	c #000067",
"2.	c #000041",
"3.	c #00001B",
"4.	c #000087",
"5.	c #000044",
"6.	c #000020",
"7.	c #0000DC",
"8.	c #0000A9",
"9.	c #00007C",
"0.	c #00004C",
"a.	c #000050",
"b.	c #000049",
"c.	c #00004E",
"d.	c #00004B",
"e.	c #00003B",
"f.	c #000011",
"g.	c #000002",
"h.	c #00007F",
"i.	c #00004D",
"j.	c #00004A",
"k.	c #00004F",
"l.	c #00003F",
"m.	c #000015",
"n.	c #0000C2",
"o.	c #000082",
"p.	c #000026",
"q.	c #00001C",
"r.	c #00001D",
"s.	c #00001A",
"t.	c #000016",
"u.	c #00000F",
"v.	c #000007",
"w.	c #000001",
"x.	c #0000AE",
"y.	c #00008C",
"z.	c #000017",
"A.	c #000008",
"B.	c #00006B",
"C.	c #00002E",
"D.	c #0000A1",
"E.	c #0000E4",
"F.	c #000005",
"G.	c #000078",
"H.	c #000037",
"I.	c #0000E3",
"J.	c #00005F",
"K.	c #0000FE",
"L.	c #000085",
"M.	c #00001E",
"N.	c #000051",
"O.	c #000052",
"P.	c #0000B2",
"Q.	c #000053",
"R.	c #0000F1",
"S.	c #000084",
"T.	c #000062",
"U.	c #00003E",
"V.	c #0000F0",
"W.	c #000038",
"X.	c #00000E",
"Y.	c #000079",
"Z.	c #000046",
". . . . . . . . . . . . . . . . . . . . . . . . . . . . . . . . . . . . . . . . . . . . . . . . . . . . . . . . . . . . . . . . . . . . . . . . . . . . . . . . ",
". . . . . . . . . . . . . . . . . . . . . . . . . . . . . . . . . . . . . . . . . . . . . . . . . . . . . . . . . . . . . . . . . . . . . . . . . . . . . . . . ",
". . . . . . . . . . . . . . . . . . . . . . . . . . . . . . . . . . . . . . . . . . . . . . . . . . . . . . . . . . . . . . . . . . . . . . . . . . . . . . . . ",
". . . . . . . . . . . . . . . . . . . . . . . . . . . . . . . . . . . . . . . . . . . . . . . . . . . . . . . . . . . . . . . . . . . . . . . . . . . . . . . . ",
". . . . . . . . . . . . . . . . . . . . . . . . . . . . . . . . . . . . . . . . . . . . . . . . . . . . . . . . . . . . . . . . . . . . . . . . . . . . . . . . ",
". . . . . . . . . . . . . . . . . . . . . . . . . . . . . . . . . . . . . . . . . . . . . . . . . . . . . . . . . . . . . . . . . . . . . . . . . . . . . . . . ",
". . . . . . . . . . . . . . . . . . . . . . . . . . . . . . . . . . . . . . . . . . . . . . . . . . . . . . . . . . . . . . . . . . . . . . . . . . . . . . . . ",
". . . . . . . . . . . . . . . . . . . . . . . . . . . . . . . . . . . . . . . . . . . . . . . . . . . . . . . . . . . . . . . . . . . . . . . . . . . . . . . . ",
". . . . . . . . . . . . . . . . . . . . . . . . . . . . . . . . . . . . . . . . . . . . . . . . . . . . . . . . . . . . . . . . . . . . . . . . . . . . . . . . ",
". . . . . . . . . . . . . . . . . . . . . . . . . . . . . . . . . . . . . . . . . . . . . . . . . . . . . . . . . . . . . . . . . . . . . . . . . . . . . . . . ",
". . . . . . . . . . . . . . . . . . . . . . . . . . . . . . . . . . . . . . . . . . . . . . . . . . . . . . . . . . . . . . . . . . . . . . . . . . . . . . . . ",
". . . . . . . . . . . . . . . . . . . . . . . . . . . . . . . . . . . . . . . . . . . . . . . . . . . . . . . . . . . . . . . . . . . . . . . . . . . . . . . . ",
". . . . . . . . . . . . . . . . . . . . . . . . . . . . . . . . . . . . . . . . . . . . . . . . . . . . . . . . . . . . . . . . . . . . . . . . . . . . . . . . ",
". . . . . . . . . . . . . . . . . . . . . . . . . . . . . . . . . . . . . . . . . . . . . . . . . . . . . . . . . . . . . . . . . . . . . . . . . . . . . . . . ",
". . . . . . . . . . . . . . . . . . . . . . . . . . . . . . . . . . . . . . . . . . . . . . . . . . . . . . . . . . . . . . . . . . . . . . . . . . . . . . . . ",
". . . . . . . . . . . . . . . . . . . . . . . . . . . . . . . . . . . . . . . . . . . . . . . . . . . . . . . . . . . . . . . . . . . . . . . . . . . . . . . . ",
". . . . . . . . . . . . . . . . . . . . . . . . . . . . . . . . . . . . . . . . . . . . . . . . . . . . . . . . . . . . . . . . . . . . . . . . . . . . . . . . ",
". . . . . . . . . . . . . . . . . . . . . . . . . . . . . . . . . . . . . . . . . . . . . . . . . . . . . . . . . . . . . . . . . . . . . . . . . . . . . . . . ",
". . . . . . . . . . . . . . . . . . . . . . . . . . . . . . . . . . . . . . . . . . . . . . . . . . . . . . . . . . . . . . . . . . . . . . . . . . . . . . . . ",
". . . . . . . . . . . . . . . . . . . . . . . . . . . . . . . . . . . . . . . . . . . . . . . . . . . . . . . . . . . . . . . . . . . . . . . . . . . . . . . . ",
". . . . . . . . . . . . . . . . . . . . . . . . . . . . . . . . . . . . . . . . . . . . . . . . . . . . . . . . . . . . . . . . . . . . . . . . . . . . . . . . ",
". . . . . . . . . . . . . . . . . . . . . . . . . . . . . . . . . . . . . . . . . . . . . . . . . . . . . . . . . . . . . . . . . . . . . . . . . . . . . . . . ",
". . . . . . . . . . . . . . . . . . . . . . . . . . . . . . . . . . . . . . . . . . . . . . . . . . . . . . . . . . . . . . . . . . . . . . . . . . . . . . . . ",
". . . . . . . . . . . . . . . . . . . . . . . . . . . . . . . . . . . . . . . . . . . . . . . . . . . . . . . . . . . . . . . . . . . . . . . . . . . . . . . . ",
". . . . . . . . . . . . . . . . . . . . . . . . . . . . . . . . . + @ @ @ @ @ @ @ @ @ @ # $ % & * = @ @ @ @ @ @ @ @ @ @ - ; > , . . . . . . . . . . . . . . . . ",
". . . . . . . . . . . . . . . . . . . . . . . . . . . . . . . . . + @ @ - # ' ' # ' # # ) ! ~ { ] ^ @ @ - # ' ' # ' ' # / ( _ : . . . . . . . . . . . . . . . . ",
". . . . . . . . . . . . . . . . . . . . . . . . . . . . . . . . . + @ # < [ } | 1 2 3 } 4 5 6 7 8 9 @ - 0 a } | 1 b b c d e f g . . . . . . . . . . . . . . . . ",
". . . . . . . . . . . . . . . . . . . . . . . . . . . . . . . . . + - < b ! h i j i k h l m n o p q - ) 3 d h i j r r h s _ t u . . . . . . . . . . . . . . . . ",
". . . . . . . . . . . . . . . . . . . . . . . . . . . . . . . . . v w 1 j x q q y e q q 5 z A B C q w [ D l y e y q q y E F G o . . . . . . . . . . . . . . . . ",
". . . . . . . . . . . . . . . . . . . . . . . . . . . . . . . . . v H } i 9 I E J E I > K L M N O q w $ k P I Q J I I > R S T U . . . . . . . . . . . . . . . . ",
". . . . . . . . . . . . . . . . . . . . . . . . . . . . . . . . . v V ( W e E > Q > I Q X Y Z ` C q H b  .y Q > Q > I Q ..+.@.#.. . . . . . . . . . . . . . . . ",
". . . . . . . . . . . . . . . . . . . . . . . . . . . . . . . . . v H 3 i y I E > I I I $.%.&.N C q w 1 r *.I E > I I I =.-.Z ;.. . . . . . . . . . . . . . . . ",
". . . . . . . . . . . . . . . . . . . . . . . . . . . . . . . . . v H 3 >.y I E I I I I $.%.&.B C q w 1 r *.I E I I I I =.-.Z ;.. . . . . . . . . . . . . . . . ",
". . . . . . . . . . . . . . . . . . . . . . . . . . . . . . . . . v V ( W ,.E > 5 > I Q X Y Z ` C q H 2  .y E > Q > I Q ..+.@.#.. . . . . . . . . . . . . . . . ",
". . . . . . . . . . . . . . . . . . . . . . . . . . . . . . . . . v H c r 9 I E J E I > '.L ).N O q w $ k P > Q J E I > $.S A U . . . . . . . . . . . . . . . . ",
". . . . . . . . . . . . . . . . . . . . . . . . . . . . . . . . . v H 2 >.q I I E I I E R %.!.B C q w } r 9 E I E I I E X -.~.o . . . . . . . . . . . . . . . . ",
". . . . . . . . . . . . . . . . . . . . . . . . . . . . . . . . . v / + {.5 K $.].$.K '.^./.M B C e V ( s E '.R '.$.$.'.(.Y T o . . . . . . . . . . . . . . . . ",
". . . . . . . . . . . . . . . . . . . . . . . . . . . . . . . . . v _.:.'.-.<.[.}.[.<.}.|.1.2.3.O e 0 k $.F }.[.}.<.<.}.4.: 5.6.. . . . . . . . . . . . . . . . ",
". . . . . . . . . . . . . . . . . . . . . . . . . . . . . . . . . >.7.8.9.!.0.a.b.c.0.d.c.e.] f.g...! (.h.G d.a.b.c.i.j.k.l.;.m.. . . . . . . . . . . . . . . . ",
". . . . . . . . . . . . . . . . . . . . . . . . . . . . . . . . . 9 n.o.j.p.q.r.s.r.q.3.r.t.u.v.w.x.y y.c.o 3.r.3.r.q.3.r.z.u.A.. . . . . . . . . . . . . . . . ",
". . . . . . . . . . . . . . . . . @ @ @ @ @ @ @ @ @ @ @ # b K B.C.( @ @ @ @ @ @ @ @ @ @ # $ % & * p . . . . . . . . . . . . . . . . . . . . . . . . . . . . . . ",
". . . . . . . . . . . . . . . . . @ @ @ - # ' ' # ' # ' 0 r D.T B E.@ @ - # ' ' # ' # # ) ! ~ { ] F.. . . . . . . . . . . . . . . . . . . . . . . . . . . . . . ",
". . . . . . . . . . . . . . . . . @ @ ' _.[ 3 2 1 | } } 7.'.G.H.f.I.@ # < [ } | 1 2 3 } 4 5 6 7 8 g.. . . . . . . . . . . . . . . . . . . . . . . . . . . . . . ",
". . . . . . . . . . . . . . . . . @ # _.2 4 k i j i k k = F J.N p + - < b ! h i j i k h l m n o p . . . . . . . . . . . . . . . . . . . . . . . . . . . . . . . ",
". . . . . . . . . . . . . . . . . K.H 3 h = q q y e q q % <.).q.O v w 1 j x q q y e q q 5 z A B C . . . . . . . . . . . . . . . . . . . . . . . . . . . . . . . ",
". . . . . . . . . . . . . . . . . K.H b >.q I E J E > I ].L.a.3.O v H } i 9 I E J E I > K L M N O . . . . . . . . . . . . . . . . . . . . . . . . . . . . . . . ",
". . . . . . . . . . . . . . . . . K./ + :.J E > Q J E E R /.M M.O v V ( W e E > Q > I Q X Y Z ` C . . . . . . . . . . . . . . . . . . . . . . . . . . . . . . . ",
". . . . . . . . . . . . . . . . . K.V |  .e I I > E > I '.|.N.q.O v H 3 i y I E > I I I $.%.&.N C . . . . . . . . . . . . . . . . . . . . . . . . . . . . . . . ",
". . . . . . . . . . . . . . . . . K.V |  .e I I > E I I '.|.O.q.O v H 3 >.y I E I I I I $.%.&.B C . . . . . . . . . . . . . . . . . . . . . . . . . . . . . . . ",
". . . . . . . . . . . . . . . . . K.) + :.J I > 5 J E E R /.M M.O v V ( W ,.E > 5 > I Q X Y Z ` C . . . . . . . . . . . . . . . . . . . . . . . . . . . . . . . ",
". . . . . . . . . . . . . . . . . K.H b >.q I E J Q > I P.L.a.3.O v H c r 9 I E J E I > '.L ).N O . . . . . . . . . . . . . . . . . . . . . . . . . . . . . . . ",
". . . . . . . . . . . . . . . . . K.V (  .,.I I E I I E K |.Q.q.O v H 2 >.q I I E I I E R %.!.B C . . . . . . . . . . . . . . . . . . . . . . . . . . . . . . . ",
". . . . . . . . . . . . . . . . . K.) ! x X K $.].R K K x., N.q.O v / + {.5 K $.].$.K '.^./.M B C . . . . . . . . . . . . . . . . . . . . . . . . . . . . . . . ",
". . . . . . . . . . . . . . . . . K.R.l P.z <.[.}.[.}.<.S.T.U.t.g.v _.:.'.-.<.[.}.[.<.}.|.1.2.3.O . . . . . . . . . . . . . . . . . . . . . . . . . . . . . . . ",
". . . . . . . . . . . . . . . . . V.r D.G.Q.i.k.b.k.d.0.i.W.p.X.w.>.7.8.9.!.0.a.b.c.0.d.c.e.] f.g.. . . . . . . . . . . . . . . . . . . . . . . . . . . . . . . ",
". . . . . . . . . . . . . . . . . ! E Y.Z.B q.r.s.r.q.3.q.m.X.F.w.9 n.o.j.p.q.r.s.r.q.3.r.t.u.v.w.. . . . . . . . . . . . . . . . . . . . . . . . . . . . . . . ",
". . . . . . . . . . . . . . . . . . . . . . . . . . . . . . . . . . . . . . . . . . . . . . . . . . . . . . . . . . . . . . . . . . . . . . . . . . . . . . . . ",
". . . . . . . . . . . . . . . . . . . . . . . . . . . . . . . . . . . . . . . . . . . . . . . . . . . . . . . . . . . . . . . . . . . . . . . . . . . . . . . . ",
". . . . . . . . . . . . . . . . . . . . . . . . . . . . . . . . . . . . . . . . . . . . . . . . . . . . . . . . . . . . . . . . . . . . . . . . . . . . . . . . ",
". . . . . . . . . . . . . . . . . . . . . . . . . . . . . . . . . . . . . . . . . . . . . . . . . . . . . . . . . . . . . . . . . . . . . . . . . . . . . . . . ",
". . . . . . . . . . . . . . . . . . . . . . . . . . . . . . . . . . . . . . . . . . . . . . . . . . . . . . . . . . . . . . . . . . . . . . . . . . . . . . . . ",
". . . . . . . . . . . . . . . . . . . . . . . . . . . . . . . . . . . . . . . . . . . . . . . . . . . . . . . . . . . . . . . . . . . . . . . . . . . . . . . . ",
". . . . . . . . . . . . . . . . . . . . . . . . . . . . . . . . . . . . . . . . . . . . . . . . . . . . . . . . . . . . . . . . . . . . . . . . . . . . . . . . ",
". . . . . . . . . . . . . . . . . . . . . . . . . . . . . . . . . . . . . . . . . . . . . . . . . . . . . . . . . . . . . . . . . . . . . . . . . . . . . . . . ",
". . . . . . . . . . . . . . . . . . . . . . . . . . . . . . . . . . . . . . . . . . . . . . . . . . . . . . . . . . . . . . . . . . . . . . . . . . . . . . . . ",
". . . . . . . . . . . . . . . . . . . . . . . . . . . . . . . . . . . . . . . . . . . . . . . . . . . . . . . . . . . . . . . . . . . . . . . . . . . . . . . . ",
". . . . . . . . . . . . . . . . . . . . . . . . . . . . . . . . . . . . . . . . . . . . . . . . . . . . . . . . . . . . . . . . . . . . . . . . . . . . . . . . ",
". . . . . . . . . . . . . . . . . . . . . . . . . . . . . . . . . . . . . . . . . . . . . . . . . . . . . . . . . . . . . . . . . . . . . . . . . . . . . . . . ",
". . . . . . . . . . . . . . . . . . . . . . . . . . . . . . . . . . . . . . . . . . . . . . . . . . . . . . . . . . . . . . . . . . . . . . . . . . . . . . . . ",
". . . . . . . . . . . . . . . . . . . . . . . . . . . . . . . . . . . . . . . . . . . . . . . . . . . . . . . . . . . . . . . . . . . . . . . . . . . . . . . . ",
". . . . . . . . . . . . . . . . . . . . . . . . . . . . . . . . . . . . . . . . . . . . . . . . . . . . . . . . . . . . . . . . . . . . . . . . . . . . . . . . ",
". . . . . . . . . . . . . . . . . . . . . . . . . . . . . . . . . . . . . . . . . . . . . . . . . . . . . . . . . . . . . . . . . . . . . . . . . . . . . . . . ",
". . . . . . . . . . . . . . . . . . . . . . . . . . . . . . . . . . . . . . . . . . . . . . . . . . . . . . . . . . . . . . . . . . . . . . . . . . . . . . . . ",
". . . . . . . . . . . . . . . . . . . . . . . . . . . . . . . . . . . . . . . . . . . . . . . . . . . . . . . . . . . . . . . . . . . . . . . . . . . . . . . . ",
". . . . . . . . . . . . . . . . . . . . . . . . . . . . . . . . . . . . . . . . . . . . . . . . . . . . . . . . . . . . . . . . . . . . . . . . . . . . . . . . ",
". . . . . . . . . . . . . . . . . . . . . . . . . . . . . . . . . . . . . . . . . . . . . . . . . . . . . . . . . . . . . . . . . . . . . . . . . . . . . . . . ",
". . . . . . . . . . . . . . . . . . . . . . . . . . . . . . . . . . . . . . . . . . . . . . . . . . . . . . . . . . . . . . . . . . . . . . . . . . . . . . . . ",
". . . . . . . . . . . . . . . . . . . . . . . . . . . . . . . . . . . . . . . . . . . . . . . . . . . . . . . . . . . . . . . . . . . . . . . . . . . . . . . . ",
". . . . . . . . . . . . . . . . . . . . . . . . . . . . . . . . . . . . . . . . . . . . . . . . . . . . . . . . . . . . . . . . . . . . . . . . . . . . . . . . ",
". . . . . . . . . . . . . . . . . . . . . . . . . . . . . . . . . . . . . . . . . . . . . . . . . . . . . . . . . . . . . . . . . . . . . . . . . . . . . . . . "};
