/* XPM */
static char * blue_xpm[] = {
"25 25 156 2",
"  	c None",
". 	c #0000FF",
"+ 	c #0000FA",
"@ 	c #0000F1",
"# 	c #0000D2",
"$ 	c #0000A4",
"% 	c #000073",
"& 	c #000046",
"* 	c #00001D",
"= 	c #000006",
"- 	c #0000F8",
"; 	c #0000EB",
"> 	c #0000CA",
", 	c #00009C",
"' 	c #00006B",
") 	c #00003F",
"! 	c #00001A",
"~ 	c #000005",
"{ 	c #0000FD",
"] 	c #0000FB",
"^ 	c #0000F9",
"/ 	c #0000EE",
"( 	c #0000DA",
"_ 	c #0000B4",
": 	c #000086",
"< 	c #000057",
"[ 	c #00002F",
"} 	c #000013",
"| 	c #000004",
"1 	c #0000FE",
"2 	c #0000F4",
"3 	c #0000F2",
"4 	c #0000F0",
"5 	c #0000E9",
"6 	c #0000EF",
"7 	c #0000EA",
"8 	c #0000DC",
"9 	c #0000C3",
"0 	c #00009A",
"a 	c #00006D",
"b 	c #000041",
"c 	c #000020",
"d 	c #00000C",
"e 	c #000002",
"f 	c #0000F3",
"g 	c #0000E7",
"h 	c #0000E5",
"i 	c #0000DF",
"j 	c #0000E3",
"k 	c #0000DD",
"l 	c #0000CC",
"m 	c #0000AD",
"n 	c #000082",
"o 	c #000055",
"p 	c #00002C",
"q 	c #000011",
"r 	c #000001",
"s 	c #0000E1",
"t 	c #0000D7",
"u 	c #0000D4",
"v 	c #0000D3",
"w 	c #0000D6",
"x 	c #0000C0",
"y 	c #000072",
"z 	c #000048",
"A 	c #000007",
"B 	c #000000",
"C 	c #0000F7",
"D 	c #0000ED",
"E 	c #0000D8",
"F 	c #0000CF",
"G 	c #0000C9",
"H 	c #0000C8",
"I 	c #0000C7",
"J 	c #0000B6",
"K 	c #000093",
"L 	c #00006C",
"M 	c #000045",
"N 	c #00001F",
"O 	c #0000EC",
"P 	c #0000E0",
"Q 	c #0000D1",
"R 	c #0000C1",
"S 	c #0000BE",
"T 	c #0000BD",
"U 	c #0000C2",
"V 	c #0000BC",
"W 	c #0000AB",
"X 	c #00008B",
"Y 	c #000065",
"Z 	c #00001C",
"` 	c #0000F6",
" .	c #0000DE",
"..	c #0000C6",
"+.	c #0000AC",
"@.	c #000066",
"#.	c #0000B0",
"$.	c #00008D",
"%.	c #00006A",
"&.	c #0000E6",
"*.	c #0000C4",
"=.	c #0000BF",
"-.	c #000040",
";.	c #0000DB",
">.	c #0000D0",
",.	c #0000AF",
"'.	c #000069",
").	c #0000FC",
"!.	c #0000CD",
"~.	c #0000A2",
"{.	c #0000A3",
"].	c #0000A1",
"^.	c #000095",
"/.	c #000077",
"(.	c #000059",
"_.	c #00003A",
":.	c #0000B8",
"<.	c #00008A",
"[.	c #00007C",
"}.	c #00007F",
"|.	c #000080",
"1.	c #00007D",
"2.	c #000074",
"3.	c #00005D",
"4.	c #000015",
"5.	c #000096",
"6.	c #000063",
"7.	c #00005B",
"8.	c #00005E",
"9.	c #000056",
"0.	c #000054",
"a.	c #00005C",
"b.	c #000043",
"c.	c #000034",
"d.	c #000025",
"e.	c #000097",
"f.	c #00003D",
"g.	c #000031",
"h.	c #000036",
"i.	c #000038",
"j.	c #000032",
"k.	c #000037",
"l.	c #000033",
"m.	c #000028",
"n.	c #000017",
"o.	c #00000B",
"p.	c #0000AA",
"q.	c #000050",
"r.	c #00002D",
"s.	c #00000F",
"t.	c #000010",
"u.	c #000009",
"v.	c #000003",
"w.	c #0000D5",
"x.	c #000014",
"y.	c #000008",
". . . . . . . . . . . . . . . . . + @ # $ % & * = ",
". . . . . . . . . . . . . . . . . - ; > , ' ) ! ~ ",
". . . . { ] ] + ^ - + ] ^ ^ ] + - / ( _ : < [ } | ",
". . . 1 ^ 2 3 4 ; 5 6 @ 7 7 @ 6 5 8 9 0 a b c d e ",
". . 1 + f ; g h i 8 j h k k h j 8 l m n o p q ~ r ",
". 1 + f 7 s ( t u v w w v v w w v x , y z c A B B ",
". { C D j E F G H H H G I I G H H J K L M N A B B ",
". { C O P Q I R S T x U T T U x V W X Y ) Z = B B ",
". { ` ;  .Q ..x S T x R S S R x T +.X @.b * = B B ",
". { f h ( F 9 V x R T V R R V T R #.$.%.& c A B B ",
". { 2 &.( F *.V =.R T T R R T T R #.$.%.& c A B B ",
". { C O P Q I R S T x U T T U x V W X Y ) Z = B B ",
". { C O i Q I R S T x U T T U x V +.X Y -.Z = B B ",
". { f h ( F 9 V x R T V R R V T R #.$.%.& c A B B ",
". { f h ( F 9 V x R T V R R V T R #.$.%.& c A B B ",
". { ` O i Q I R S T x R T T R x V +.X Y -.* = B B ",
". { C O P Q I R S T x U T T U x V W X Y ) Z = B B ",
". { 2 &.;.>.*.T =.x T T x x T T x ,.$.'.M N A B B ",
". { f h ( F 9 V x R T V R R V T R #.$.%.& c A B B ",
". ).@  .!.V +.~.~.{.~.].{.{.].~.{.^./.(._.! = B B ",
". ] 7 >.:.].<.[.}.|.1.[.}.}.[.1.|.2.3.& [ 4.~ B B ",
"C 6 t _ 5.[.6.o 7.8.9.0.a.a.0.9.8.o b.c.d.q | B B ",
"O P x e.y 0.f.g.h.i.j.g.k.k.g.j.i.l.m.N n.o.e B B ",
"P Q p.[.q.r.! s.t.q s.s.q q s.s.q s.d u.A v.r B B ",
"w.U 5.Y h.x.y.B B B B B B B B B B B B B B B B B B "};
