/* XPM */
static char * ghost_xpm[] = {
"24 24 259 2",
"  	c None",
". 	c #888D9F",
"+ 	c #898D9E",
"@ 	c #8D929A",
"# 	c #909596",
"$ 	c #919695",
"% 	c #8F948F",
"& 	c #8C9286",
"* 	c #8D9386",
"= 	c #8F9488",
"- 	c #93958F",
"; 	c #949593",
"> 	c #959595",
", 	c #838383",
"' 	c #636363",
") 	c #B1B5C7",
"! 	c #B1B5C6",
"~ 	c #AFB4BD",
"{ 	c #AEB3B6",
"] 	c #AFB4B5",
"^ 	c #ACB2AD",
"/ 	c #A8AEA2",
"( 	c #A9B0A2",
"_ 	c #ADB2A4",
": 	c #B1B3AD",
"< 	c #B3B4B1",
"[ 	c #B4B4B4",
"} 	c #A1A1A1",
"| 	c #7E7E7E",
"1 	c #EEEFFF",
"2 	c #E8EAFA",
"3 	c #C1C5D3",
"4 	c #ABB0BB",
"5 	c #ACB1B8",
"6 	c #A8AEAD",
"7 	c #A3AAA0",
"8 	c #A7ADA0",
"9 	c #ABB1A2",
"0 	c #AFB1AA",
"a 	c #B1B1AF",
"b 	c #B1B1B1",
"c 	c #ABABAB",
"d 	c #A0A0A0",
"e 	c #F6F4FF",
"f 	c #E6E4F2",
"g 	c #7B7B92",
"h 	c #3E4059",
"i 	c #3E4050",
"j 	c #3D3F46",
"k 	c #3B3F3A",
"l 	c #3E443A",
"m 	c #41473B",
"n 	c #40423E",
"o 	c #40403F",
"p 	c #404040",
"q 	c #606060",
"r 	c #989898",
"s 	c #FBF7FF",
"t 	c #E6E2ED",
"u 	c #54526C",
"v 	c #00001F",
"w 	c #000016",
"x 	c #00010C",
"y 	c #000201",
"z 	c #030701",
"A 	c #040900",
"B 	c #010300",
"C 	c #000100",
"D 	c #000000",
"E 	c #353535",
"F 	c #939393",
"G 	c #FEF8FF",
"H 	c #E8E4EC",
"I 	c #55536A",
"J 	c #01001C",
"K 	c #000017",
"L 	c #00000F",
"M 	c #010104",
"N 	c #010302",
"O 	c #010400",
"P 	c #FFFAFD",
"Q 	c #EAE5EA",
"R 	c #565365",
"S 	c #010019",
"T 	c #000018",
"U 	c #010010",
"V 	c #020007",
"W 	c #010003",
"X 	c #010100",
"Y 	c #FFFBF9",
"Z 	c #EAE6E6",
"` 	c #575461",
" .	c #030016",
"..	c #010018",
"+.	c #010012",
"@.	c #030008",
"#.	c #030003",
"$.	c #020000",
"%.	c #010000",
"&.	c #575460",
"*.	c #020015",
"=.	c #010016",
"-.	c #020010",
";.	c #040006",
">.	c #030000",
",.	c #FFFBFA",
"'.	c #EAE6E8",
").	c #565461",
"!.	c #020014",
"~.	c #000014",
"{.	c #02000E",
"].	c #040004",
"^.	c #030002",
"/.	c #FFFCFB",
"(.	c #EAE7E7",
"_.	c #565460",
":.	c #010011",
"<.	c #000011",
"[.	c #02000A",
"}.	c #040102",
"|.	c #030101",
"1.	c #030100",
"2.	c #FFFDFB",
"3.	c #EAE8E7",
"4.	c #56545D",
"5.	c #01000E",
"6.	c #00000C",
"7.	c #020107",
"8.	c #040201",
"9.	c #030200",
"0.	c #FFFEF9",
"a.	c #EAE8E5",
"b.	c #565459",
"c.	c #010009",
"d.	c #000107",
"e.	c #020204",
"f.	c #040300",
"g.	c #030300",
"h.	c #FFFEF6",
"i.	c #EAE9E2",
"j.	c #555554",
"k.	c #000104",
"l.	c #000202",
"m.	c #020301",
"n.	c #040500",
"o.	c #040400",
"p.	c #020100",
"q.	c #FFFFF5",
"r.	c #EAEAE1",
"s.	c #555651",
"t.	c #000200",
"u.	c #000300",
"v.	c #020400",
"w.	c #040600",
"x.	c #020200",
"y.	c #FEFFF7",
"z.	c #E9EAE3",
"A.	c #555752",
"B.	c #050500",
"C.	c #FCFFFA",
"D.	c #E8EAE6",
"E.	c #545755",
"F.	c #000303",
"G.	c #000301",
"H.	c #020300",
"I.	c #050400",
"J.	c #FAFFFD",
"K.	c #E6EAE9",
"L.	c #53565A",
"M.	c #000108",
"N.	c #020102",
"O.	c #050200",
"P.	c #050100",
"Q.	c #F8FFFF",
"R.	c #E3EAEB",
"S.	c #53565F",
"T.	c #00010D",
"U.	c #000009",
"V.	c #020005",
"W.	c #050101",
"X.	c #060001",
"Y.	c #050000",
"Z.	c #F5FFFF",
"`.	c #E1EAEB",
" +	c #525661",
".+	c #000111",
"++	c #00000E",
"@+	c #03000A",
"#+	c #070004",
"$+	c #070002",
"%+	c #060000",
"&+	c #040000",
"*+	c #F3FFFF",
"=+	c #DEEAEB",
"-+	c #515763",
";+	c #000313",
">+	c #03000D",
",+	c #070009",
"'+	c #080006",
")+	c #070003",
"!+	c #040002",
"~+	c #020001",
"{+	c #010101",
"]+	c #020202",
"^+	c #373737",
"/+	c #F1FFFF",
"(+	c #DCEAEC",
"_+	c #505864",
":+	c #000416",
"<+	c #000114",
"[+	c #030012",
"}+	c #08000F",
"|+	c #09000C",
"1+	c #080009",
"2+	c #050005",
"3+	c #020002",
"4+	c #060606",
"5+	c #040404",
"6+	c #393939",
"7+	c #949494",
"8+	c #D9E4E1",
"9+	c #CAD6D3",
"0+	c #666E75",
"a+	c #2D3140",
"b+	c #2D2E41",
"c+	c #2F2C40",
"d+	c #312B3D",
"e+	c #322A3A",
"f+	c #322A36",
"g+	c #302C33",
"h+	c #2F2D2F",
"i+	c #2D2D2D",
"j+	c #2E2E2E",
"k+	c #2F2F2F",
"l+	c #303030",
"m+	c #323232",
"n+	c #2C2C2C",
"o+	c #565656",
"p+	c #969696",
"q+	c #B3B9B0",
"r+	c #ADB4AC",
"s+	c #898F92",
"t+	c #767A85",
"u+	c #767789",
"v+	c #767488",
"w+	c #767084",
"x+	c #766E80",
"y+	c #766F7C",
"z+	c #78747B",
"A+	c #787679",
"B+	c #777777",
"C+	c #797979",
"D+	c #7A7A7A",
"E+	c #7C7C7C",
"F+	c #787878",
"G+	c #737373",
"H+	c #717171",
"I+	c #757575",
"J+	c #999999",
". + @ # $ % & * = - ; > > > > > > > > > > > , ' ",
") ! ~ { ] ^ / ( _ : < [ [ [ [ [ [ [ [ [ [ [ } | ",
"1 2 3 4 5 6 7 8 9 0 a b b b b b b b b b b b c d ",
"e f g h i j k l m n o p p p p p p p p p p p q r ",
"s t u v w x y z A B C D D D D D D D D D D D E F ",
"G H I J K L M N O C D D D D D D D D D D D D E F ",
"P Q R S T U V W X D D D D D D D D D D D D D E F ",
"Y Z `  ...+.@.#.$.%.%.D D D D D D D D D D D E F ",
"Y Z &.*.=.-.;.#.>.$.%.D D D D D D D D D D D E F ",
",.'.).!.~.{.].^.>.$.%.D D D D D D D D D D D E F ",
"/.(._.:.<.[.}.|.1.$.%.D D D D D D D D D D D E F ",
"2.3.4.5.6.7.8.9.9.$.%.D D D D D D D D D D D E F ",
"0.a.b.c.d.e.f.g.9.$.%.D D D D D D D D D D D E F ",
"h.i.j.k.l.m.n.o.g.p.%.D D D D D D D D D D D E F ",
"q.r.s.t.u.v.w.n.o.x.X D D D D D D D D D D D E F ",
"y.z.A.u.u.v.B.n.o.x.X D D D D D D D D D D D E F ",
"C.D.E.F.G.H.I.I.f.p.X D D D D D D D D D D D E F ",
"J.K.L.M.k.N.O.O.P.p.%.D D D D D D D D D D D E F ",
"Q.R.S.T.U.V.W.X.Y.>.%.D D D D D D D D D D D E F ",
"Z.`. +.+++@+#+$+%+&+$.D D D D D D D D D D D E F ",
"*+=+-+;+.+>+,+'+)+!+~+D D D D D D {+]+{+D ]+^+F ",
"/+(+_+:+<+[+}+|+1+2+3+D D D D D D ]+4+]+{+5+6+7+",
"8+9+0+a+b+c+d+e+f+g+h+i+j+k+k+k+j+l+m+j+n+l+o+p+",
"q+r+s+t+u+v+w+x+y+z+A+B+C+D+E+E+D+F+B+G+H+I+, J+"};
