/* XPM */
static char * green[] = {
"25 25 126 2",
"  	c None",
". 	c #00FF00",
"+ 	c #00FA00",
"@ 	c #00F100",
"# 	c #00D200",
"$ 	c #00A400",
"% 	c #007300",
"& 	c #004600",
"* 	c #001D00",
"= 	c #000600",
"- 	c #00F800",
"; 	c #00EB00",
"> 	c #00CA00",
", 	c #009C00",
"' 	c #006B00",
") 	c #003F00",
"! 	c #001A00",
"~ 	c #000500",
"{ 	c #00FD00",
"] 	c #00FB00",
"^ 	c #00F900",
"/ 	c #00F700",
"( 	c #00F500",
"_ 	c #00F400",
": 	c #00EA00",
"< 	c #00D600",
"[ 	c #00B300",
"} 	c #008600",
"| 	c #005700",
"1 	c #002F00",
"2 	c #001300",
"3 	c #000400",
"4 	c #00FE00",
"5 	c #00F300",
"6 	c #00EC00",
"7 	c #00E500",
"8 	c #00DF00",
"9 	c #00DC00",
"0 	c #00CF00",
"a 	c #00B700",
"b 	c #009400",
"c 	c #004100",
"d 	c #002000",
"e 	c #000C00",
"f 	c #000200",
"g 	c #00F600",
"h 	c #00D400",
"i 	c #00C900",
"j 	c #00C300",
"k 	c #00B500",
"l 	c #009800",
"m 	c #007600",
"n 	c #005100",
"o 	c #002B00",
"p 	c #001100",
"q 	c #000100",
"r 	c #00FC00",
"s 	c #00F200",
"t 	c #00E200",
"u 	c #00C200",
"v 	c #00AA00",
"w 	c #009B00",
"x 	c #007D00",
"y 	c #005C00",
"z 	c #003C00",
"A 	c #001B00",
"B 	c #000000",
"C 	c #00EF00",
"D 	c #00DA00",
"E 	c #00C500",
"F 	c #00B000",
"G 	c #009D00",
"H 	c #009200",
"I 	c #008500",
"J 	c #006C00",
"K 	c #004F00",
"L 	c #003300",
"M 	c #001700",
"N 	c #00BB00",
"O 	c #00A200",
"P 	c #008D00",
"Q 	c #008000",
"R 	c #007500",
"S 	c #005E00",
"T 	c #004500",
"U 	c #002D00",
"V 	c #001400",
"W 	c #00E900",
"X 	c #00CD00",
"Y 	c #00B100",
"Z 	c #009500",
"` 	c #007C00",
" .	c #006D00",
"..	c #006300",
"+.	c #005000",
"@.	c #003B00",
"#.	c #002600",
"$.	c #008300",
"%.	c #006500",
"&.	c #005400",
"*.	c #004D00",
"=.	c #003E00",
"-.	c #000D00",
";.	c #000300",
">.	c #00D500",
",.	c #008B00",
"'.	c #006800",
").	c #004C00",
"!.	c #003600",
"~.	c #002C00",
"{.	c #000900",
"].	c #00E000",
"^.	c #00C000",
"/.	c #009600",
"(.	c #004900",
"_.	c #003100",
":.	c #002300",
"<.	c #001F00",
"[.	c #001900",
"}.	c #00D100",
"|.	c #007B00",
"1.	c #004E00",
"2.	c #002A00",
"3.	c #001600",
"4.	c #000B00",
"5.	c #000800",
". . . . . . . . . . . . . . . . . + @ # $ % & * = ",
". . . . . . . . . . . . . . . . . - ; > , ' ) ! ~ ",
". . { ] ^ / ( _ _ _ _ _ _ _ _ _ _ : < [ } | 1 2 3 ",
". 4 ^ 5 6 7 8 9 9 9 9 9 9 9 9 9 9 0 a b ' c d e f ",
". { g : 8 h i j j j j j j j j j j k l m n o p ~ q ",
". r s t # u [ v v v v v v v v v v w x y z A = B B ",
". r C D E F G H H H H H H H H H H I J K L M ~ B B ",
". ] 6 h N O P Q Q Q Q Q Q Q Q Q Q R S T U V 3 B B ",
". ] 6 h N O P Q Q Q Q Q Q Q Q Q Q R S T U V 3 B B ",
". ] 6 h N O P Q Q Q Q Q Q Q Q Q Q R S T U V 3 B B ",
". ] 6 h N O P Q Q Q Q Q Q Q Q Q Q R S T U V 3 B B ",
". ] 6 h N O P Q Q Q Q Q Q Q Q Q Q R S T U V 3 B B ",
". ] 6 h N O P Q Q Q Q Q Q Q Q Q Q R S T U V 3 B B ",
". ] 6 h N O P Q Q Q Q Q Q Q Q Q Q R S T U V 3 B B ",
". ] 6 h N O P Q Q Q Q Q Q Q Q Q Q R S T U V 3 B B ",
". ] 6 h N O P Q Q Q Q Q Q Q Q Q Q R S T U V 3 B B ",
". ] 6 h N O P Q Q Q Q Q Q Q Q Q Q R S T U V 3 B B ",
". ] 6 h N O P Q Q Q Q Q Q Q Q Q Q R S T U V 3 B B ",
". ] 6 h N O P Q Q Q Q Q Q Q Q Q Q R S T U V 3 B B ",
". ] W X Y Z `  . . . . . . . . . ...+.@.#.p 3 B B ",
". + 7 E $ $.%.&.&.&.&.&.&.&.&.&.&.*.=.U * -.;.B B ",
"/ C >.F ,.'.).z z z z z z z z z z !.~.d V {.f B B ",
"6 ].^./.J (._.:.:.:.:.:.:.:.:.:.:.<.[.2 e ~ q B B ",
"].}.v |.1.2.3.4.4.4.4.4.4.4.4.4.4.{.5.= 3 f B B B ",
">.u /.%.!.V 5.B B B B B B B B B B B B B B B B B B "};
