/* XPM */
static char * green_prev_xpm[] = {
"85 85 81 1",
" 	c None",
".	c #000000",
"+	c #00FF00",
"@	c #00F700",
"#	c #00DE00",
"$	c #00A300",
"%	c #005E00",
"&	c #002800",
"*	c #00FE00",
"=	c #00FD00",
"-	c #00FB00",
";	c #00F900",
">	c #00EC00",
",	c #00CC00",
"'	c #009100",
")	c #004E00",
"!	c #001F00",
"~	c #00F200",
"{	c #00E800",
"]	c #00E000",
"^	c #00DB00",
"/	c #00C800",
"(	c #006C00",
"_	c #003200",
":	c #001100",
"<	c #00F800",
"[	c #00E600",
"}	c #00D300",
"|	c #00C200",
"1	c #00B800",
"2	c #00A200",
"3	c #007900",
"4	c #004900",
"5	c #001A00",
"6	c #000500",
"7	c #00F500",
"8	c #00BF00",
"9	c #00A600",
"0	c #009700",
"a	c #008400",
"b	c #006000",
"c	c #003600",
"d	c #001000",
"e	c #000200",
"f	c #00B000",
"g	c #009200",
"h	c #008000",
"i	c #007000",
"j	c #005000",
"k	c #002E00",
"l	c #000D00",
"m	c #000100",
"n	c #00F100",
"o	c #00CF00",
"p	c #00A900",
"q	c #008900",
"r	c #007600",
"s	c #006600",
"t	c #004A00",
"u	c #002A00",
"v	c #000C00",
"w	c #00FC00",
"x	c #009400",
"y	c #005500",
"z	c #001E00",
"A	c #000900",
"B	c #00F000",
"C	c #00D800",
"D	c #00A400",
"E	c #006E00",
"F	c #004700",
"G	c #002B00",
"H	c #00DF00",
"I	c #00C000",
"J	c #008100",
"K	c #004600",
"L	c #002300",
"M	c #001200",
"N	c #000F00",
"O	c #000B00",
"P	c #000600",
".....................................................................................",
".....................................................................................",
".....................................................................................",
".....................................................................................",
".....................................................................................",
".....................................................................................",
".....................................................................................",
".....................................................................................",
".....................................................................................",
".....................................................................................",
".....................................................................................",
".....................................................................................",
".....................................................................................",
".....................................................................................",
".....................................................................................",
".....................................................................................",
".....................................................................................",
".....................................................................................",
".....................................................................................",
".....................................................................................",
".....................................................................................",
".....................................................................................",
".....................................................................................",
".....................................................................................",
".....................................................................................",
".....................................................................................",
".................++++++++++++@#$%&++++++++++++@#$%&..................................",
".................+*=-;;;;;;;;>,')!+*=-;;;;;;;;>,')!..................................",
".................+-~{]^^^^^^^/$(_:+-~{]^^^^^^^/$(_:..................................",
".................*<[}|111111123456*<[}|111111123456..................................",
".................*7^890000000abcde*7^890000000abcde..................................",
".................*~}fghhhhhhhijklm*~}fghhhhhhhijklm..................................",
".................*~}fghhhhhhhijklm*~}fghhhhhhhijklm..................................",
".................*~}fghhhhhhhijklm*~}fghhhhhhhijklm..................................",
".................*~}fghhhhhhhijklm*~}fghhhhhhhijklm..................................",
".................*~}fghhhhhhhijklm*~}fghhhhhhhijklm..................................",
".................*~}fghhhhhhhijklm*~}fghhhhhhhijklm..................................",
".................*~}fghhhhhhhijklm*~}fghhhhhhhijklm..................................",
".................*~}fghhhhhhhijklm*~}fghhhhhhhijklm..................................",
".................*nopqrrrrrrrstuvm*nopqrrrrrrrstuvm..................................",
".................w>|x(yyyyyyytczAmw>|x(yyyyyyytczAm..................................",
".................BCDEF_______G!:6.BCDEF_______G!:6...................................",
".................HIJKLMMMMMMMNOPe.HIJKLMMMMMMMNOPe...................................",
"..................................++++++++++++@#$%&++++++++++++@#$%&.................",
"..................................+*=-;;;;;;;;>,')!+*=-;;;;;;;;>,')!.................",
"..................................+-~{]^^^^^^^/$(_:+-~{]^^^^^^^/$(_:.................",
"..................................*<[}|111111123456*<[}|111111123456.................",
"..................................*7^890000000abcde*7^890000000abcde.................",
"..................................*~}fghhhhhhhijklm*~}fghhhhhhhijklm.................",
"..................................*~}fghhhhhhhijklm*~}fghhhhhhhijklm.................",
"..................................*~}fghhhhhhhijklm*~}fghhhhhhhijklm.................",
"..................................*~}fghhhhhhhijklm*~}fghhhhhhhijklm.................",
"..................................*~}fghhhhhhhijklm*~}fghhhhhhhijklm.................",
"..................................*~}fghhhhhhhijklm*~}fghhhhhhhijklm.................",
"..................................*~}fghhhhhhhijklm*~}fghhhhhhhijklm.................",
"..................................*~}fghhhhhhhijklm*~}fghhhhhhhijklm.................",
"..................................*nopqrrrrrrrstuvm*nopqrrrrrrrstuvm.................",
"..................................w>|x(yyyyyyytczAmw>|x(yyyyyyytczAm.................",
"..................................BCDEF_______G!:6.BCDEF_______G!:6..................",
"..................................HIJKLMMMMMMMNOPe.HIJKLMMMMMMMNOPe..................",
".....................................................................................",
".....................................................................................",
".....................................................................................",
".....................................................................................",
".....................................................................................",
".....................................................................................",
".....................................................................................",
".....................................................................................",
".....................................................................................",
".....................................................................................",
".....................................................................................",
".....................................................................................",
".....................................................................................",
".....................................................................................",
".....................................................................................",
".....................................................................................",
".....................................................................................",
".....................................................................................",
".....................................................................................",
".....................................................................................",
".....................................................................................",
".....................................................................................",
".....................................................................................",
".....................................................................................",
"....................................................................................."};
