/* XPM */
static char * grey_prev_xpm[] = {
"85 85 75 1",
" 	c None",
".	c #000000",
"+	c #C0C0C0",
"@	c #BABABA",
"#	c #A8A8A8",
"$	c #7B7B7B",
"%	c #474747",
"&	c #1E1E1E",
"*	c #BFBFBF",
"=	c #BEBEBE",
"-	c #BDBDBD",
";	c #B3B3B3",
">	c #9B9B9B",
",	c #6D6D6D",
"'	c #3B3B3B",
")	c #181818",
"!	c #B9B9B9",
"~	c #B4B4B4",
"{	c #B0B0B0",
"]	c #AEAEAE",
"^	c #9F9F9F",
"/	c #808080",
"(	c #545454",
"_	c #272727",
":	c #0D0D0D",
"<	c #BCBCBC",
"[	c #AAAAAA",
"}	c #A1A1A1",
"|	c #9C9C9C",
"1	c #898989",
"2	c #666666",
"3	c #3D3D3D",
"4	c #151515",
"5	c #040404",
"6	c #ADADAD",
"7	c #A0A0A0",
"8	c #939393",
"9	c #8C8C8C",
"0	c #7A7A7A",
"a	c #585858",
"b	c #323232",
"c	c #0E0E0E",
"d	c #010101",
"e	c #989898",
"f	c #707070",
"g	c #505050",
"h	c #2E2E2E",
"i	c #A6A6A6",
"j	c #919191",
"k	c #767676",
"l	c #4A4A4A",
"m	c #2A2A2A",
"n	c #0C0C0C",
"o	c #999999",
"p	c #7C7C7C",
"q	c #646464",
"r	c #555555",
"s	c #363636",
"t	c #090909",
"u	c #A4A4A4",
"v	c #7F7F7F",
"w	c #5A5A5A",
"x	c #3F3F3F",
"y	c #2B2B2B",
"z	c #1F1F1F",
"A	c #111111",
"B	c #050505",
"C	c #636363",
"D	c #373737",
"E	c #121212",
"F	c #0F0F0F",
"G	c #0B0B0B",
"H	c #060606",
"I	c #020202",
"J	c #888888",
".....................................................................................",
".....................................................................................",
".....................................................................................",
".....................................................................................",
".....................................................................................",
".....................................................................................",
".....................................................................................",
".....................................................................................",
".....................................................................................",
".....................................................................................",
".....................................................................................",
".....................................................................................",
".....................................................................................",
".....................................................................................",
".....................................................................................",
".....................................................................................",
".....................................................................................",
".....................................................................................",
".....................................................................................",
".....................................................................................",
".....................................................................................",
".....................................................................................",
".....................................................................................",
".....................................................................................",
".....................................................................................",
".....................................................................................",
"..................................++++++++++++@#$%&..................................",
"..................................++*=--------;>,')..................................",
"..................................+=!~{]]]]]]]^/(_:..................................",
"..................................+<;[}|||||||12345..................................",
"..................................*@67899999990abcd..................................",
"..................................*@[e1///////fgh:d..................................",
"..................................*@[e1///////fgh:d..................................",
"..................................*@[e1///////fgh:d..................................",
"..................................*@[e1///////fgh:d..................................",
"..................................*@[e1///////fgh:d..................................",
"..................................*@[e1///////fgh:d..................................",
"..................................*@[e1///////fgh:d..................................",
"..................................*@[e1///////fgh:d..................................",
"..................................*!ij/kkkkkkk2lmnd..................................",
"..................................=~opqrrrrrrrls&td..................................",
"..................................~uvwxbbbbbbbyzAB...................................",
"..................................#jCD&EEEEEEEFGHI...................................",
".................++++++++++++@#$%&++++++++++++@#$%&++++++++++++@#$%&.................",
".................++*=--------;>,')++*=--------;>,')++*=--------;>,').................",
".................+=!~{]]]]]]]^/(_:+=!~{]]]]]]]^/(_:+=!~{]]]]]]]^/(_:.................",
".................+<;[}|||||||12345+<;[}|||||||12345+<;[}|||||||12345.................",
".................*@67899999990abcd*@67899999990abcd*@67899999990abcd.................",
".................*@[eJ///////fgh:d*@[e1///////fgh:d*@[eJ///////fgh:d.................",
".................*@[eJ///////fgh:d*@[e1///////fgh:d*@[eJ///////fgh:d.................",
".................*@[eJ///////fgh:d*@[e1///////fgh:d*@[eJ///////fgh:d.................",
".................*@[eJ///////fgh:d*@[e1///////fgh:d*@[eJ///////fgh:d.................",
".................*@[eJ///////fgh:d*@[e1///////fgh:d*@[eJ///////fgh:d.................",
".................*@[eJ///////fgh:d*@[e1///////fgh:d*@[eJ///////fgh:d.................",
".................*@[eJ///////fgh:d*@[e1///////fgh:d*@[eJ///////fgh:d.................",
".................*@[eJ///////fgh:d*@[e1///////fgh:d*@[eJ///////fgh:d.................",
".................*!ij/kkkkkkk2lmnd*!ij/kkkkkkk2lmnd*!ij/kkkkkkk2lmnd.................",
".................=~opqrrrrrrrls&td=~opqrrrrrrrls&td=~opqrrrrrrrls&td.................",
".................~uvwxbbbbbbbyzAB.~uvwxbbbbbbbyzAB.~uvwxbbbbbbbyzAB..................",
".................#jCD&EEEEEEEFGHI.#jCD&EEEEEEEFGHI.#jCD&EEEEEEEFGHI..................",
".....................................................................................",
".....................................................................................",
".....................................................................................",
".....................................................................................",
".....................................................................................",
".....................................................................................",
".....................................................................................",
".....................................................................................",
".....................................................................................",
".....................................................................................",
".....................................................................................",
".....................................................................................",
".....................................................................................",
".....................................................................................",
".....................................................................................",
".....................................................................................",
".....................................................................................",
".....................................................................................",
".....................................................................................",
".....................................................................................",
".....................................................................................",
".....................................................................................",
".....................................................................................",
".....................................................................................",
"....................................................................................."};
