/* XPM */
static char * grey[] = {
"25 25 112 2",
"  	c None",
". 	c #C0C0C0",
"+ 	c #BCBCBC",
"@ 	c #B6B6B6",
"# 	c #9F9F9F",
"$ 	c #7C7C7C",
"% 	c #575757",
"& 	c #353535",
"* 	c #161616",
"= 	c #040404",
"- 	c #BABABA",
"; 	c #B1B1B1",
"> 	c #989898",
", 	c #757575",
"' 	c #505050",
") 	c #303030",
"! 	c #141414",
"~ 	c #BFBFBF",
"{ 	c #BEBEBE",
"] 	c #BDBDBD",
"^ 	c #BBBBBB",
"/ 	c #B2B2B2",
"( 	c #A3A3A3",
"_ 	c #888888",
": 	c #666666",
"< 	c #424242",
"[ 	c #242424",
"} 	c #0E0E0E",
"| 	c #030303",
"1 	c #B3B3B3",
"2 	c #AFAFAF",
"3 	c #AEAEAE",
"4 	c #A4A4A4",
"5 	c #909090",
"6 	c #747474",
"7 	c #545454",
"8 	c #323232",
"9 	c #191919",
"0 	c #090909",
"a 	c #010101",
"b 	c #B5B5B5",
"c 	c #B0B0B0",
"d 	c #AAAAAA",
"e 	c #A2A2A2",
"f 	c #959595",
"g 	c #7D7D7D",
"h 	c #606060",
"i 	c #232323",
"j 	c #0D0D0D",
"k 	c #B9B9B9",
"l 	c #A9A9A9",
"m 	c #A1A1A1",
"n 	c #999999",
"o 	c #6E6E6E",
"p 	c #515151",
"q 	c #343434",
"r 	c #171717",
"s 	c #050505",
"t 	c #000000",
"u 	c #B7B7B7",
"v 	c #ADADAD",
"w 	c #8E8E8E",
"x 	c #898989",
"y 	c #656565",
"z 	c #4A4A4A",
"A 	c #151515",
"B 	c #9E9E9E",
"C 	c #919191",
"D 	c #868686",
"E 	c #808080",
"F 	c #5E5E5E",
"G 	c #454545",
"H 	c #2D2D2D",
"I 	c #B4B4B4",
"J 	c #939393",
"K 	c #838383",
"L 	c #6D6D6D",
"M 	c #636363",
"N 	c #3B3B3B",
"O 	c #262626",
"P 	c #111111",
"Q 	c #9B9B9B",
"R 	c #727272",
"S 	c #5F5F5F",
"T 	c #4D4D4D",
"U 	c #3E3E3E",
"V 	c #1D1D1D",
"W 	c #707070",
"X 	c #595959",
"Y 	c #464646",
"Z 	c #3C3C3C",
"` 	c #363636",
" .	c #2C2C2C",
"..	c #202020",
"+.	c #020202",
"@.	c #929292",
"#.	c #737373",
"$.	c #565656",
"%.	c #3D3D3D",
"&.	c #1F1F1F",
"*.	c #131313",
"=.	c #0C0C0C",
"-.	c #9D9D9D",
";.	c #212121",
">.	c #0B0B0B",
",.	c #080808",
"'.	c #060606",
").	c #A0A0A0",
"!.	c #717171",
"~.	c #4C4C4C",
"{.	c #292929",
"].	c #0F0F0F",
". . . . . . . . . . . . . . . . . + @ # $ % & * = ",
". . . . . . . . . . . . . . . . . - ; > , ' ) ! = ",
". . ~ { ] + ^ ^ ^ ^ ^ ^ ^ ^ ^ ^ ^ / ( _ : < [ } | ",
". ~ ] - @ 1 2 3 3 3 3 3 3 3 3 3 3 4 5 6 7 8 9 0 a ",
". ~ ^ b c d 4 e e e e e e e e e e f g h < i j = a ",
". { k ; l m n f f f f f f f f f f _ o p q r s t t ",
". { u v ( > w x x x x x x x x x x g y z ) A = t t ",
". { u d B C D E E E E E E E E E E , F G H ! = t t ",
". { u d B C D E E E E E E E E E E , F G H ! = t t ",
". { u d B C D E E E E E E E E E E , F G H ! = t t ",
". { u d B C D E E E E E E E E E E , F G H ! = t t ",
". { u d B C D E E E E E E E E E E , F G H ! = t t ",
". { u d B C D E E E E E E E E E E , F G H ! = t t ",
". { u d B C D E E E E E E E E E E , F G H ! = t t ",
". { u d B C D E E E E E E E E E E , F G H ! = t t ",
". { u d B C D E E E E E E E E E E , F G H ! = t t ",
". { u d B C D E E E E E E E E E E , F G H ! = t t ",
". { u d B C D E E E E E E E E E E , F G H ! = t t ",
". { u d B C D E E E E E E E E E E , F G H ! = t t ",
". ] I ( J K , L L L L L L L L L L M ' N O P = t t ",
". ] c Q D R S 7 7 7 7 7 7 7 7 7 7 T U H V j | t t ",
"- b ( x W X Y Z Z Z Z Z Z Z Z Z Z `  ...! 0 +.t t ",
"; l @.#.$.%. .i i i i i i i i i i &.9 *.=.s a t t ",
"l -.E F Z ;.*.>.>.>.>.>.>.>.>.>.>.0 ,.'.= +.t t t ",
").@.!.~.{.].s t t t t t t t t t t t t t t t t t t "};
