/* XPM */
static char * magenta_prev_xpm[] = {
"85 85 81 1",
" 	c None",
".	c #000000",
"+	c #FF00FF",
"@	c #F700F7",
"#	c #DE00DE",
"$	c #A300A3",
"%	c #5E005E",
"&	c #280028",
"*	c #FE00FE",
"=	c #FD00FD",
"-	c #FB00FB",
";	c #F900F9",
">	c #EC00EC",
",	c #CC00CC",
"'	c #910091",
")	c #4E004E",
"!	c #1F001F",
"~	c #F200F2",
"{	c #E800E8",
"]	c #E000E0",
"^	c #DB00DB",
"/	c #C800C8",
"(	c #6C006C",
"_	c #320032",
":	c #110011",
"<	c #F800F8",
"[	c #E600E6",
"}	c #D300D3",
"|	c #C200C2",
"1	c #B800B8",
"2	c #A200A2",
"3	c #790079",
"4	c #490049",
"5	c #1A001A",
"6	c #050005",
"7	c #F500F5",
"8	c #BF00BF",
"9	c #A600A6",
"0	c #970097",
"a	c #840084",
"b	c #600060",
"c	c #360036",
"d	c #100010",
"e	c #020002",
"f	c #B000B0",
"g	c #920092",
"h	c #800080",
"i	c #700070",
"j	c #500050",
"k	c #2E002E",
"l	c #0D000D",
"m	c #010001",
"n	c #F100F1",
"o	c #CF00CF",
"p	c #A900A9",
"q	c #890089",
"r	c #760076",
"s	c #660066",
"t	c #4A004A",
"u	c #2A002A",
"v	c #0C000C",
"w	c #FC00FC",
"x	c #940094",
"y	c #550055",
"z	c #1E001E",
"A	c #090009",
"B	c #F000F0",
"C	c #D800D8",
"D	c #A400A4",
"E	c #6E006E",
"F	c #470047",
"G	c #2B002B",
"H	c #DF00DF",
"I	c #C000C0",
"J	c #810081",
"K	c #460046",
"L	c #230023",
"M	c #120012",
"N	c #0F000F",
"O	c #0B000B",
"P	c #060006",
".....................................................................................",
".....................................................................................",
".....................................................................................",
".....................................................................................",
".....................................................................................",
".....................................................................................",
".....................................................................................",
".....................................................................................",
".....................................................................................",
".....................................................................................",
".....................................................................................",
".....................................................................................",
".....................................................................................",
".....................................................................................",
".....................................................................................",
".....................................................................................",
".....................................................................................",
"...........................................++++++++++++@#$%&.........................",
"...........................................+*=-;;;;;;;;>,')!.........................",
"...........................................+-~{]^^^^^^^/$(_:.........................",
"...........................................*<[}|111111123456.........................",
"...........................................*7^890000000abcde.........................",
"...........................................*~}fghhhhhhhijklm.........................",
"...........................................*~}fghhhhhhhijklm.........................",
"...........................................*~}fghhhhhhhijklm.........................",
"...........................................*~}fghhhhhhhijklm.........................",
"...........................................*~}fghhhhhhhijklm.........................",
"...........................................*~}fghhhhhhhijklm.........................",
"...........................................*~}fghhhhhhhijklm.........................",
"...........................................*~}fghhhhhhhijklm.........................",
"...........................................*nopqrrrrrrrstuvm.........................",
"...........................................w>|x(yyyyyyytczAm.........................",
"...........................................BCDEF_______G!:6..........................",
"...........................................HIJKLMMMMMMMNOPe..........................",
"...........................................++++++++++++@#$%&.........................",
"...........................................+*=-;;;;;;;;>,')!.........................",
"...........................................+-~{]^^^^^^^/$(_:.........................",
"...........................................*<[}|111111123456.........................",
"...........................................*7^890000000abcde.........................",
"...........................................*~}fghhhhhhhijklm.........................",
"...........................................*~}fghhhhhhhijklm.........................",
"...........................................*~}fghhhhhhhijklm.........................",
"...........................................*~}fghhhhhhhijklm.........................",
"...........................................*~}fghhhhhhhijklm.........................",
"...........................................*~}fghhhhhhhijklm.........................",
"...........................................*~}fghhhhhhhijklm.........................",
"...........................................*~}fghhhhhhhijklm.........................",
"...........................................*nopqrrrrrrrstuvm.........................",
"...........................................w>|x(yyyyyyytczAm.........................",
"...........................................BCDEF_______G!:6..........................",
"...........................................HIJKLMMMMMMMNOPe..........................",
"..........................++++++++++++@#$%&++++++++++++@#$%&.........................",
"..........................+*=-;;;;;;;;>,')!+*=-;;;;;;;;>,')!.........................",
"..........................+-~{]^^^^^^^/$(_:+-~{]^^^^^^^/$(_:.........................",
"..........................*<[}|111111123456*<[}|111111123456.........................",
"..........................*7^890000000abcde*7^890000000abcde.........................",
"..........................*~}fghhhhhhhijklm*~}fghhhhhhhijklm.........................",
"..........................*~}fghhhhhhhijklm*~}fghhhhhhhijklm.........................",
"..........................*~}fghhhhhhhijklm*~}fghhhhhhhijklm.........................",
"..........................*~}fghhhhhhhijklm*~}fghhhhhhhijklm.........................",
"..........................*~}fghhhhhhhijklm*~}fghhhhhhhijklm.........................",
"..........................*~}fghhhhhhhijklm*~}fghhhhhhhijklm.........................",
"..........................*~}fghhhhhhhijklm*~}fghhhhhhhijklm.........................",
"..........................*~}fghhhhhhhijklm*~}fghhhhhhhijklm.........................",
"..........................*nopqrrrrrrrstuvm*nopqrrrrrrrstuvm.........................",
"..........................w>|x(yyyyyyytczAmw>|x(yyyyyyytczAm.........................",
"..........................BCDEF_______G!:6.BCDEF_______G!:6..........................",
"..........................HIJKLMMMMMMMNOPe.HIJKLMMMMMMMNOPe..........................",
".....................................................................................",
".....................................................................................",
".....................................................................................",
".....................................................................................",
".....................................................................................",
".....................................................................................",
".....................................................................................",
".....................................................................................",
".....................................................................................",
".....................................................................................",
".....................................................................................",
".....................................................................................",
".....................................................................................",
".....................................................................................",
".....................................................................................",
".....................................................................................",
"....................................................................................."};
