/* XPM */
static char * red_prev_xpm[] = {
"85 85 81 1",
" 	c None",
".	c #000000",
"+	c #FF0000",
"@	c #F70000",
"#	c #DE0000",
"$	c #A30000",
"%	c #5E0000",
"&	c #280000",
"*	c #FE0000",
"=	c #FD0000",
"-	c #FB0000",
";	c #F90000",
">	c #EC0000",
",	c #CC0000",
"'	c #910000",
")	c #4E0000",
"!	c #1F0000",
"~	c #F20000",
"{	c #E80000",
"]	c #E00000",
"^	c #DB0000",
"/	c #C80000",
"(	c #6C0000",
"_	c #320000",
":	c #110000",
"<	c #F80000",
"[	c #E60000",
"}	c #D30000",
"|	c #C20000",
"1	c #B80000",
"2	c #A20000",
"3	c #790000",
"4	c #490000",
"5	c #1A0000",
"6	c #050000",
"7	c #F50000",
"8	c #BF0000",
"9	c #A60000",
"0	c #970000",
"a	c #840000",
"b	c #600000",
"c	c #360000",
"d	c #100000",
"e	c #020000",
"f	c #B00000",
"g	c #920000",
"h	c #800000",
"i	c #700000",
"j	c #500000",
"k	c #2E0000",
"l	c #0D0000",
"m	c #010000",
"n	c #F10000",
"o	c #CF0000",
"p	c #A90000",
"q	c #890000",
"r	c #760000",
"s	c #660000",
"t	c #4A0000",
"u	c #2A0000",
"v	c #0C0000",
"w	c #FC0000",
"x	c #940000",
"y	c #550000",
"z	c #1E0000",
"A	c #090000",
"B	c #F00000",
"C	c #D80000",
"D	c #A40000",
"E	c #6E0000",
"F	c #470000",
"G	c #2B0000",
"H	c #DF0000",
"I	c #C00000",
"J	c #810000",
"K	c #460000",
"L	c #230000",
"M	c #120000",
"N	c #0F0000",
"O	c #0B0000",
"P	c #060000",
".....................................................................................",
".....................................................................................",
".....................................................................................",
".....................................................................................",
".....................................................................................",
".....................................................................................",
".....................................................................................",
".....................................................................................",
".....................................................................................",
"..................................++++++++++++@#$%&..................................",
"..................................+*=-;;;;;;;;>,')!..................................",
"..................................+-~{]^^^^^^^/$(_:..................................",
"..................................*<[}|111111123456..................................",
"..................................*7^890000000abcde..................................",
"..................................*~}fghhhhhhhijklm..................................",
"..................................*~}fghhhhhhhijklm..................................",
"..................................*~}fghhhhhhhijklm..................................",
"..................................*~}fghhhhhhhijklm..................................",
"..................................*~}fghhhhhhhijklm..................................",
"..................................*~}fghhhhhhhijklm..................................",
"..................................*~}fghhhhhhhijklm..................................",
"..................................*~}fghhhhhhhijklm..................................",
"..................................*nopqrrrrrrrstuvm..................................",
"..................................w>|x(yyyyyyytczAm..................................",
"..................................BCDEF_______G!:6...................................",
"..................................HIJKLMMMMMMMNOPe...................................",
"..................................++++++++++++@#$%&..................................",
"..................................+*=-;;;;;;;;>,')!..................................",
"..................................+-~{]^^^^^^^/$(_:..................................",
"..................................*<[}|111111123456..................................",
"..................................*7^890000000abcde..................................",
"..................................*~}fghhhhhhhijklm..................................",
"..................................*~}fghhhhhhhijklm..................................",
"..................................*~}fghhhhhhhijklm..................................",
"..................................*~}fghhhhhhhijklm..................................",
"..................................*~}fghhhhhhhijklm..................................",
"..................................*~}fghhhhhhhijklm..................................",
"..................................*~}fghhhhhhhijklm..................................",
"..................................*~}fghhhhhhhijklm..................................",
"..................................*nopqrrrrrrrstuvm..................................",
"..................................w>|x(yyyyyyytczAm..................................",
"..................................BCDEF_______G!:6...................................",
"..................................HIJKLMMMMMMMNOPe...................................",
"..................................++++++++++++@#$%&..................................",
"..................................+*=-;;;;;;;;>,')!..................................",
"..................................+-~{]^^^^^^^/$(_:..................................",
"..................................*<[}|111111123456..................................",
"..................................*7^890000000abcde..................................",
"..................................*~}fghhhhhhhijklm..................................",
"..................................*~}fghhhhhhhijklm..................................",
"..................................*~}fghhhhhhhijklm..................................",
"..................................*~}fghhhhhhhijklm..................................",
"..................................*~}fghhhhhhhijklm..................................",
"..................................*~}fghhhhhhhijklm..................................",
"..................................*~}fghhhhhhhijklm..................................",
"..................................*~}fghhhhhhhijklm..................................",
"..................................*nopqrrrrrrrstuvm..................................",
"..................................w>|x(yyyyyyytczAm..................................",
"..................................BCDEF_______G!:6...................................",
"..................................HIJKLMMMMMMMNOPe...................................",
"..................................++++++++++++@#$%&..................................",
"..................................+*=-;;;;;;;;>,')!..................................",
"..................................+-~{]^^^^^^^/$(_:..................................",
"..................................*<[}|111111123456..................................",
"..................................*7^890000000abcde..................................",
"..................................*~}fghhhhhhhijklm..................................",
"..................................*~}fghhhhhhhijklm..................................",
"..................................*~}fghhhhhhhijklm..................................",
"..................................*~}fghhhhhhhijklm..................................",
"..................................*~}fghhhhhhhijklm..................................",
"..................................*~}fghhhhhhhijklm..................................",
"..................................*~}fghhhhhhhijklm..................................",
"..................................*~}fghhhhhhhijklm..................................",
"..................................*nopqrrrrrrrstuvm..................................",
"..................................w>|x(yyyyyyytczAm..................................",
"..................................BCDEF_______G!:6...................................",
"..................................HIJKLMMMMMMMNOPe...................................",
".....................................................................................",
".....................................................................................",
".....................................................................................",
".....................................................................................",
".....................................................................................",
".....................................................................................",
".....................................................................................",
"....................................................................................."};
