/* XPM */
static char * white_xpm[] = {
"25 25 81 1",
" 	c None",
".	c #FCFCFC",
"+	c #FBFBFB",
"@	c #FAFAFA",
"#	c #F5F5F5",
"$	c #E7E7E7",
"%	c #CDCDCD",
"&	c #AAAAAA",
"*	c #7E7E7E",
"=	c #646464",
"-	c #F3F3F3",
";	c #E3E3E3",
">	c #C7C7C7",
",	c #A4A4A4",
"'	c #7B7B7B",
")	c #F6F6F6",
"!	c #ECECEC",
"~	c #D9D9D9",
"{	c #B9B9B9",
"]	c #939393",
"^	c #727272",
"/	c #636363",
"(	c #F9F9F9",
"_	c #F0F0F0",
":	c #E2E2E2",
"<	c #CACACA",
"[	c #A6A6A6",
"}	c #838383",
"|	c #6B6B6B",
"1	c #606060",
"2	c #F8F8F8",
"3	c #F2F2F2",
"4	c #D4D4D4",
"5	c #929292",
"6	c #717171",
"7	c #DEDEDE",
"8	c #C8C8C8",
"9	c #A9A9A9",
"0	c #808080",
"a	c #656565",
"b	c #5F5F5F",
"c	c #EFEFEF",
"d	c #EDEDED",
"e	c #D8D8D8",
"f	c #C1C1C1",
"g	c #7D7D7D",
"h	c #E9E9E9",
"i	c #D3D3D3",
"j	c #BCBCBC",
"k	c #A0A0A0",
"l	c #F1F1F1",
"m	c #EAEAEA",
"n	c #D7D7D7",
"o	c #B1B1B1",
"p	c #969696",
"q	c #777777",
"r	c #F4F4F4",
"s	c #E1E1E1",
"t	c #C4C4C4",
"u	c #B4B4B4",
"v	c #898989",
"w	c #E0E0E0",
"x	c #CFCFCF",
"y	c #BDBDBD",
"z	c #B2B2B2",
"A	c #ABABAB",
"B	c #9E9E9E",
"C	c #8E8E8E",
"D	c #616161",
"E	c #CCCCCC",
"F	c #B3B3B3",
"G	c #8C8C8C",
"H	c #7A7A7A",
"I	c #6F6F6F",
"J	c #8F8F8F",
"K	c #6E6E6E",
"L	c #696969",
"M	c #676767",
"N	c #C3C3C3",
"O	c #9A9A9A",
"P	c #747474",
".................+@#$%&*=",
".................+@-;>,'=",
".....++++++++++++@)!~{]^/",
"...+@@((((((((((()_:<[}|1",
"..+@(2)))))))))))3$4{56=1",
"..+@2)-3333333333!7890abb",
"..+()-cdddddddddd$ef,g=bb",
"..+2#_!hhhhhhhhhh;ijk'=bb",
"..+2#_!hhhhhhhhhh;ijk'=bb",
"..+2#_!hhhhhhhhhh;ijk'=bb",
"..+2#_!hhhhhhhhhh;ijk'=bb",
"..+2#_!hhhhhhhhhh;ijk'=bb",
"..+2#_!hhhhhhhhhh;ijk'=bb",
"..+2#_!hhhhhhhhhh;ijk'=bb",
"..+2#_!hhhhhhhhhh;ijk'=bb",
"..+2#_!hhhhhhhhhh;ijk'=bb",
"..+2#_!hhhhhhhhhh;ijk'=bb",
"..+2#_!hhhhhhhhhh;ijk'=bb",
"..+2#_!hhhhhhhhhh;ijk'=bb",
"..@)lm;7777777777n>opq=bb",
"..(r!si<<<<<<<<<<tukv6/bb",
"+@)dwxyzzzzzzzzzzABC'|Dbb",
"@2lsEFB5555555555G}HIa1bb",
"2rhizJHKKKKKKKKKK|LM=Dbbb",
"#lwNOPabbbbbbbbbbbbbbbbbb"};
