/* XPM */
static char * yellow_prev_xpm[] = {
"85 85 81 1",
" 	c None",
".	c #000000",
"+	c #FFFF00",
"@	c #F7F700",
"#	c #DEDE00",
"$	c #A3A300",
"%	c #5E5E00",
"&	c #282800",
"*	c #FEFE00",
"=	c #FDFD00",
"-	c #FBFB00",
";	c #F9F900",
">	c #ECEC00",
",	c #CCCC00",
"'	c #919100",
")	c #4E4E00",
"!	c #1F1F00",
"~	c #F2F200",
"{	c #E8E800",
"]	c #E0E000",
"^	c #DBDB00",
"/	c #C8C800",
"(	c #6C6C00",
"_	c #323200",
":	c #111100",
"<	c #F8F800",
"[	c #E6E600",
"}	c #D3D300",
"|	c #C2C200",
"1	c #B8B800",
"2	c #A2A200",
"3	c #797900",
"4	c #494900",
"5	c #1A1A00",
"6	c #050500",
"7	c #F5F500",
"8	c #BFBF00",
"9	c #A6A600",
"0	c #979700",
"a	c #848400",
"b	c #606000",
"c	c #363600",
"d	c #101000",
"e	c #020200",
"f	c #B0B000",
"g	c #929200",
"h	c #808000",
"i	c #707000",
"j	c #505000",
"k	c #2E2E00",
"l	c #0D0D00",
"m	c #010100",
"n	c #F1F100",
"o	c #CFCF00",
"p	c #A9A900",
"q	c #898900",
"r	c #767600",
"s	c #666600",
"t	c #4A4A00",
"u	c #2A2A00",
"v	c #0C0C00",
"w	c #FCFC00",
"x	c #949400",
"y	c #555500",
"z	c #1E1E00",
"A	c #090900",
"B	c #F0F000",
"C	c #D8D800",
"D	c #A4A400",
"E	c #6E6E00",
"F	c #474700",
"G	c #2B2B00",
"H	c #DFDF00",
"I	c #C0C000",
"J	c #818100",
"K	c #464600",
"L	c #232300",
"M	c #121200",
"N	c #0F0F00",
"O	c #0B0B00",
"P	c #060600",
".....................................................................................",
".....................................................................................",
".....................................................................................",
".....................................................................................",
".....................................................................................",
".....................................................................................",
".....................................................................................",
".....................................................................................",
".....................................................................................",
".....................................................................................",
".....................................................................................",
".....................................................................................",
".....................................................................................",
".....................................................................................",
".....................................................................................",
".....................................................................................",
".....................................................................................",
"..........................++++++++++++@#$%&..........................................",
"..........................+*=-;;;;;;;;>,')!..........................................",
"..........................+-~{]^^^^^^^/$(_:..........................................",
"..........................*<[}|111111123456..........................................",
"..........................*7^890000000abcde..........................................",
"..........................*~}fghhhhhhhijklm..........................................",
"..........................*~}fghhhhhhhijklm..........................................",
"..........................*~}fghhhhhhhijklm..........................................",
"..........................*~}fghhhhhhhijklm..........................................",
"..........................*~}fghhhhhhhijklm..........................................",
"..........................*~}fghhhhhhhijklm..........................................",
"..........................*~}fghhhhhhhijklm..........................................",
"..........................*~}fghhhhhhhijklm..........................................",
"..........................*nopqrrrrrrrstuvm..........................................",
"..........................w>|x(yyyyyyytczAm..........................................",
"..........................BCDEF_______G!:6...........................................",
"..........................HIJKLMMMMMMMNOPe...........................................",
"..........................++++++++++++@#$%&..........................................",
"..........................+*=-;;;;;;;;>,')!..........................................",
"..........................+-~{]^^^^^^^/$(_:..........................................",
"..........................*<[}|111111123456..........................................",
"..........................*7^890000000abcde..........................................",
"..........................*~}fghhhhhhhijklm..........................................",
"..........................*~}fghhhhhhhijklm..........................................",
"..........................*~}fghhhhhhhijklm..........................................",
"..........................*~}fghhhhhhhijklm..........................................",
"..........................*~}fghhhhhhhijklm..........................................",
"..........................*~}fghhhhhhhijklm..........................................",
"..........................*~}fghhhhhhhijklm..........................................",
"..........................*~}fghhhhhhhijklm..........................................",
"..........................*nopqrrrrrrrstuvm..........................................",
"..........................w>|x(yyyyyyytczAm..........................................",
"..........................BCDEF_______G!:6...........................................",
"..........................HIJKLMMMMMMMNOPe...........................................",
"..........................++++++++++++@#$%&++++++++++++@#$%&.........................",
"..........................+*=-;;;;;;;;>,')!+*=-;;;;;;;;>,')!.........................",
"..........................+-~{]^^^^^^^/$(_:+-~{]^^^^^^^/$(_:.........................",
"..........................*<[}|111111123456*<[}|111111123456.........................",
"..........................*7^890000000abcde*7^890000000abcde.........................",
"..........................*~}fghhhhhhhijklm*~}fghhhhhhhijklm.........................",
"..........................*~}fghhhhhhhijklm*~}fghhhhhhhijklm.........................",
"..........................*~}fghhhhhhhijklm*~}fghhhhhhhijklm.........................",
"..........................*~}fghhhhhhhijklm*~}fghhhhhhhijklm.........................",
"..........................*~}fghhhhhhhijklm*~}fghhhhhhhijklm.........................",
"..........................*~}fghhhhhhhijklm*~}fghhhhhhhijklm.........................",
"..........................*~}fghhhhhhhijklm*~}fghhhhhhhijklm.........................",
"..........................*~}fghhhhhhhijklm*~}fghhhhhhhijklm.........................",
"..........................*nopqrrrrrrrstuvm*nopqrrrrrrrstuvm.........................",
"..........................w>|x(yyyyyyytczAmw>|x(yyyyyyytczAm.........................",
"..........................BCDEF_______G!:6.BCDEF_______G!:6..........................",
"..........................HIJKLMMMMMMMNOPe.HIJKLMMMMMMMNOPe..........................",
".....................................................................................",
".....................................................................................",
".....................................................................................",
".....................................................................................",
".....................................................................................",
".....................................................................................",
".....................................................................................",
".....................................................................................",
".....................................................................................",
".....................................................................................",
".....................................................................................",
".....................................................................................",
".....................................................................................",
".....................................................................................",
".....................................................................................",
".....................................................................................",
"....................................................................................."};
